<svg width="600" height="125" viewBox="0 0 600 125" fill="none" xmlns="http://www.w3.org/2000/svg">
<path d="M599.395 119.122C595.865 115.192 592.765 111.342 589.205 107.872C574.175 93.2624 554.995 84.5324 534.995 76.9824C504.585 65.5024 472.695 62.7624 440.205 64.0924C417.685 65.0124 395.145 66.0224 372.695 67.7524C351.065 69.4224 329.565 72.4424 307.935 74.2024C287.375 75.8724 266.745 77.2124 246.115 77.7124C221.355 78.3024 196.555 78.1224 171.785 77.7724C149.695 77.4524 127.625 76.0224 105.535 75.8524C87.2946 75.7124 68.9946 76.3724 51.4846 82.0324C39.7046 85.8424 28.8846 91.2224 19.0546 98.2224C11.6646 103.482 7.59464 110.502 5.85464 118.742C5.48464 120.512 4.99464 122.262 4.55464 124.022C4.11464 124.092 3.67464 124.162 3.24464 124.232C2.21464 120.262 0.694639 116.332 0.254639 112.312C-1.56536 95.6224 6.43465 83.5624 22.2047 75.2324C37.4647 67.1724 54.2047 63.0024 71.3347 59.9324C95.0147 55.6924 118.985 53.3424 143.085 53.1424C165.885 52.9524 184.905 44.2024 203.635 34.0224C223.035 23.4724 242.875 13.6824 264.865 8.16236C292.245 1.28236 320.155 -0.947637 348.545 0.352362C391.235 2.30236 430.525 14.6424 468.635 31.1524C491.225 40.9424 515.025 47.7024 539.815 51.0824C552.095 52.7524 564.595 53.1024 577.005 53.8724C581.965 54.1824 582.955 54.9724 581.895 59.2624C580.665 64.2324 579.555 69.2524 577.935 74.1224C576.595 78.1624 577.585 81.1224 580.825 84.1124C592.875 95.2524 598.935 106.802 599.415 119.142L599.395 119.122ZM210.225 55.9224C212.425 56.2724 213.005 56.4324 213.595 56.4424C228.565 56.7424 243.545 57.2824 258.515 57.2324C274.125 57.1824 289.755 56.8924 305.335 56.1024C324.825 55.1124 344.305 53.7124 363.745 52.0924C376.875 51.0024 389.995 49.5324 402.995 47.5724C407.235 46.9324 411.475 44.6924 415.015 42.3324C418.485 40.0124 418.015 38.0224 414.165 36.3024C408.975 33.9924 403.715 31.6924 398.255 30.0124C379.195 24.1624 359.575 20.6424 339.555 18.6424C322.535 16.9424 305.625 16.5624 288.865 20.1324C263.285 25.5724 240.735 36.9124 219.095 49.9124C216.405 51.5324 213.905 53.4024 210.225 55.9024V55.9224Z" fill="#E9A655"/>
</svg>
