<svg width="600" height="279" viewBox="0 0 600 279" fill="none" xmlns="http://www.w3.org/2000/svg">
<path d="M599.395 119.122C595.865 115.192 592.765 111.342 589.205 107.872C574.175 93.2624 554.995 84.5324 534.995 76.9824C504.585 65.5024 472.695 62.7624 440.205 64.0924C417.685 65.0124 395.145 66.0224 372.695 67.7524C351.065 69.4224 329.565 72.4424 307.935 74.2024C287.375 75.8724 266.745 77.2124 246.115 77.7124C221.355 78.3024 196.555 78.1224 171.785 77.7724C149.695 77.4524 127.625 76.0224 105.535 75.8524C87.2946 75.7124 68.9946 76.3724 51.4846 82.0324C39.7046 85.8424 28.8846 91.2224 19.0546 98.2224C11.6646 103.482 7.59464 110.502 5.85464 118.742C5.48464 120.512 4.99464 122.262 4.55464 124.022C4.11464 124.092 3.67464 124.162 3.24464 124.232C2.21464 120.262 0.694639 116.332 0.254639 112.312C-1.56536 95.6224 6.43465 83.5624 22.2047 75.2324C37.4647 67.1724 54.2047 63.0024 71.3347 59.9324C95.0147 55.6924 118.985 53.3424 143.085 53.1424C165.885 52.9524 184.905 44.2024 203.635 34.0224C223.035 23.4724 242.875 13.6824 264.865 8.16236C292.245 1.28236 320.155 -0.947637 348.545 0.352362C391.235 2.30236 430.525 14.6424 468.635 31.1524C491.225 40.9424 515.025 47.7024 539.815 51.0824C552.095 52.7524 564.595 53.1024 577.005 53.8724C581.965 54.1824 582.955 54.9724 581.895 59.2624C580.665 64.2324 579.555 69.2524 577.935 74.1224C576.595 78.1624 577.585 81.1224 580.825 84.1124C592.875 95.2524 598.935 106.802 599.415 119.142L599.395 119.122ZM210.225 55.9224C212.425 56.2724 213.005 56.4324 213.595 56.4424C228.565 56.7424 243.545 57.2824 258.515 57.2324C274.125 57.1824 289.755 56.8924 305.335 56.1024C324.825 55.1124 344.305 53.7124 363.745 52.0924C376.875 51.0024 389.995 49.5324 402.995 47.5724C407.235 46.9324 411.475 44.6924 415.015 42.3324C418.485 40.0124 418.015 38.0224 414.165 36.3024C408.975 33.9924 403.715 31.6924 398.255 30.0124C379.195 24.1624 359.575 20.6424 339.555 18.6424C322.535 16.9424 305.625 16.5624 288.865 20.1324C263.285 25.5724 240.735 36.9124 219.095 49.9124C216.405 51.5324 213.905 53.4024 210.225 55.9024V55.9224Z" fill="#E9A655"/>
<path d="M126.424 164.453C129.834 155.273 132.984 145.993 136.724 136.923C140.104 128.713 143.734 120.553 147.964 112.683C155.524 98.6026 168.244 95.1526 184.184 97.1926C188.614 97.7626 192.984 99.1526 197.204 100.603C201.264 102.003 203.374 105.043 203.034 109.023C202.304 117.523 201.344 126.003 200.564 134.493C198.504 156.873 196.074 179.243 194.744 201.653C194.394 207.463 197.134 213.553 199.224 219.283C200.464 222.693 200.094 224.693 196.204 225.213C185.324 226.663 174.424 228.023 163.494 229.103C159.654 229.483 157.304 226.933 157.584 222.443C158.014 215.503 159.284 208.603 159.824 201.673C161.254 183.083 162.494 164.473 163.754 145.863C163.834 144.683 163.394 143.483 162.184 142.103C161.224 144.103 160.184 146.083 159.314 148.113C147.884 174.613 136.524 201.133 125.034 227.603C123.024 232.223 120.814 236.903 114.764 238.543C109.604 239.943 107.904 238.813 107.254 233.973C104.834 215.933 102.284 197.913 99.834 179.873C99.054 174.093 98.504 168.283 97.764 162.493C97.554 160.843 97.044 159.223 96.664 157.583C96.244 157.523 95.834 157.473 95.414 157.413C94.314 161.853 93.134 166.273 92.124 170.723C87.354 191.793 83.164 212.993 77.714 233.913C74.054 247.943 67.554 261.073 55.584 271.303C46.374 279.173 33.624 280.293 24.654 273.813C14.834 266.723 15.504 253.063 21.574 245.593C22.364 244.623 24.924 244.113 26.394 244.423C32.524 245.703 37.224 244.073 40.864 239.573C49.164 229.323 53.344 217.453 57.324 205.503C64.304 184.523 68.474 163.063 71.144 141.333C71.354 139.643 71.284 137.913 71.244 136.203C71.084 129.563 66.354 127.063 60.344 130.803C57.914 132.313 55.344 134.823 54.694 137.273C53.284 142.563 52.664 148.123 52.594 153.573C52.574 155.613 54.534 158.173 56.414 159.613C59.164 161.713 59.164 163.623 58.034 166.323C53.304 177.603 46.354 182.423 34.804 182.303C29.164 182.243 24.744 180.143 21.634 175.973C14.764 166.753 13.104 156.533 17.274 146.283C26.284 124.143 41.464 106.823 67.134 98.9226C76.204 96.1326 85.704 95.7826 95.084 97.8926C108.724 100.963 117.354 110.463 119.554 124.663C121.594 137.873 123.494 151.103 125.444 164.323C125.764 164.363 126.094 164.393 126.414 164.433L126.424 164.453Z" fill="white"/>
<path d="M530.544 98.0029C549.734 99.0829 566.194 105.253 578.284 119.373C583.584 125.563 584.994 132.863 583.834 140.383C582.084 151.733 570.114 157.723 557.424 153.563C553.374 152.233 549.664 149.853 546.194 147.483C545.184 146.793 544.704 143.823 545.454 143.003C548.374 139.813 551.224 136.883 548.894 132.403C546.224 127.263 541.354 124.823 535.464 124.193C529.964 123.603 524.654 124.423 521.234 129.023C517.824 133.593 519.654 138.043 522.244 142.243C526.994 149.943 534.684 154.993 542.334 160.053C549.694 164.933 557.354 169.483 564.324 174.793C579.604 186.443 587.114 201.033 583.104 219.393C580.034 233.433 566.734 245.033 549.934 247.193C527.104 250.123 505.844 245.813 487.064 233.393C475.584 225.803 470.764 211.223 474.994 198.993C478.604 188.543 487.304 184.673 498.534 185.103C502.634 185.263 506.774 186.733 510.694 188.083C513.564 189.073 514.514 190.833 512.394 193.763C507.714 200.273 508.864 206.863 515.214 212.143C520.414 216.463 526.694 218.583 533.714 218.583C542.544 218.583 547.374 211.883 544.604 203.613C541.834 195.363 534.944 190.163 527.654 185.303C518.034 178.893 508.014 172.903 498.864 165.983C489.454 158.873 484.234 149.313 483.594 138.093C482.564 119.963 498.084 102.603 518.194 99.3229C522.204 98.6629 526.304 98.4529 530.534 98.0229L530.544 98.0029Z" fill="white"/>
<path d="M438.424 95.1428C446.314 95.1428 454.214 94.8928 462.084 95.2128C470.414 95.5428 471.694 97.4427 471.044 104.853C470.434 111.793 470.464 118.783 470.144 125.753C470.074 127.303 469.954 128.903 469.444 130.363C468.144 134.053 464.974 134.803 462.014 131.633C455.644 124.783 447.254 121.733 437.954 120.213C434.894 119.713 431.644 119.613 428.544 119.913C424.004 120.353 420.894 123.033 420.254 126.993C419.414 132.173 419.294 137.453 419.114 142.693C418.994 145.993 421.704 146.493 424.624 146.533C433.294 146.673 441.974 146.793 450.644 146.973C456.954 147.103 457.364 147.193 456.884 152.733C456.444 157.913 455.734 163.213 454.014 168.143C451.734 174.683 447.024 176.533 439.604 174.773C435.824 173.873 432.154 172.603 428.384 171.673C421.994 170.093 417.994 171.793 416.724 177.593C415.544 182.963 415.154 188.573 415.284 194.063C415.404 199.183 419.014 201.533 424.934 202.013C436.114 202.913 445.944 199.723 455.314 194.553C458.054 193.043 462.014 191.053 464.424 191.823C468.604 193.153 466.744 197.503 466.384 200.543C465.364 209.143 464.084 217.733 462.634 226.283C461.804 231.203 459.384 233.203 453.964 232.693C444.454 231.793 435.044 230.113 425.554 229.033C410.584 227.323 395.584 225.823 380.604 224.233C378.894 224.053 377.164 223.923 375.484 223.593C372.464 223.003 371.174 221.263 372.144 218.573C373.114 215.893 374.104 213.183 375.504 210.673C380.874 201.063 382.194 190.643 382.994 180.173C384.324 162.563 385.494 144.933 386.354 127.293C386.664 121.063 385.864 114.783 385.594 108.523C385.214 99.9328 387.784 97.3127 397.384 96.7027" fill="white"/>
<path d="M316.314 221.093C304.324 221.093 292.324 221.213 280.334 221.043C273.874 220.953 272.994 219.343 274.534 213.553C277.134 203.803 279.994 194.073 281.714 184.193C283.564 173.533 284.434 162.723 285.354 151.953C286.274 141.173 287.064 130.373 287.194 119.573C287.244 115.323 285.404 111.033 284.334 106.783C283.924 105.133 282.974 103.553 282.784 101.893C282.504 99.3229 283.434 97.4929 286.944 97.5129C298.314 97.5829 309.684 97.5629 321.054 97.5129C324.614 97.4929 326.594 98.9429 326.144 102.153C325.284 108.313 323.934 114.423 323.124 120.583C320.594 139.903 318.224 159.233 315.814 178.563C315.704 179.413 315.754 180.273 315.774 181.133C316.064 194.543 320.434 195.433 333.544 193.803C342.304 192.713 349.654 188.593 356.604 183.733C359.034 182.033 362.274 181.273 365.154 180.083C365.814 182.873 367.344 185.753 366.984 188.423C365.774 197.393 364.494 206.423 362.064 215.163C360.204 221.863 358.084 222.513 350.394 222.523" fill="white"/>
<path d="M244.664 97.5328C250.344 97.5328 256.034 97.6828 261.704 97.4828C266.144 97.3328 267.954 99.2528 267.354 102.903C266.554 107.793 265.144 112.613 264.334 117.503C262.114 130.823 259.874 144.133 258.024 157.503C256.654 167.363 255.834 177.293 254.864 187.193C253.944 196.613 254.144 205.863 258.794 214.733C261.554 219.993 260.134 221.623 253.744 221.973C241.634 222.633 229.534 223.293 217.434 223.963C213.354 224.193 211.654 222.003 213.064 218.133C215.354 211.823 218.684 205.683 219.844 199.223C222.094 186.633 223.364 173.883 224.604 161.163C225.884 147.993 227.054 134.793 227.424 121.583C227.574 116.363 225.444 111.073 224.284 105.833C224.044 104.733 223.344 103.713 223.084 102.613C222.254 99.1328 223.624 97.5928 227.624 97.5528C233.304 97.5028 238.984 97.5428 244.664 97.5428V97.5328Z" fill="white"/>
</svg>
